# xmcd
#
# Track frame offsets:
#	150
#	15603
#	39883
#	42773
#	70824
#	106584
#	124836
#	149289
#	168386
#	197026
#	222984
#
# Disc length: 3151 seconds
#
# Revision: 1
# Processed by: cddbd v1.5.2PL0 Copyright (c) Steve Scherf et al.
# Submitted via: EasyCDDAExtractor 2010.6.0.0
#
DISCID=910c4d0b
DTITLE=Janis Joplin - Great Women's Voices
DYEAR=2006
DGENRE=Blues
TTITLE0=Down On Me
TTITLE1=Combination Of The Two
TTITLE2=Noise Jam
TTITLE3=Road Block
TTITLE4=Ball And Chain
TTITLE5=Piece Of My Heart
TTITLE6=Kozmic Blues
TTITLE7=Move Over
TTITLE8=Try (Jut A Little Bit Harder)
TTITLE9=Get It While You Can
TTITLE10=Flower In The Sun
EXTD=
EXTT0=
EXTT1=
EXTT2=
EXTT3=
EXTT4=
EXTT5=
EXTT6=
EXTT7=
EXTT8=
EXTT9=
EXTT10=
PLAYORDER=
